<svg xmlns="http://www.w3.org/2000/svg" width="58.438" height="55" viewBox="0 0 58.438 55"><path d="M28.222,0C42.915,0,43.745,6.914,58.438,6.914c0,14.729-23.331,33.357-23.331,48.086-14.693,0,.459-9.244-14.234-9.244C20.873,31.027,28.222,14.729,28.222,0ZM7.421,34.822a3.878,3.878,0,0,1,.306-.415q2.616-2.658,5.235-5.308c.448-.452.618-.443,1.046.038a4.5,4.5,0,0,1-.055,6.018c-1.068,1.144-2.195,2.234-3.3,3.337a6.16,6.16,0,0,1-.621.479A4.05,4.05,0,0,1,11.033,42a5.656,5.656,0,0,1-1.25,2.9l1.063.849a6.6,6.6,0,0,0,1.592-4.563H24.546a2.088,2.088,0,0,0,2.3-2.3V13.825A2.09,2.09,0,0,0,24.529,11.5H9.938a2.113,2.113,0,0,0-2.381,2.385q0,9.082.01,18.164a1.112,1.112,0,0,1-.412.968c-.279.222-.544.46-.829.707ZM0,54.278H19.935V46.709H18.616a1.183,1.183,0,0,1,.5-1.39,4.807,4.807,0,0,0,1.756-2.512l-1.282-.46a4.254,4.254,0,0,1-2.213,2.49.507.507,0,0,0-.171.38c-.02.5-.008.993-.008,1.482H3.424v-.451c0-3.639.008-7.277,0-10.916a6.475,6.475,0,0,1,2-4.833c.41-.4.828-.791,1.224-1.167l-1-1.083c-.393.419-.753.827-1.14,1.209A7.929,7.929,0,0,0,2.043,35.37c.011,3.611,0,7.221,0,10.831v.527H0Z" fill="none"/><path d="M56.217,123.279l-1.1-1.1c.285-.244.551-.484.831-.707a1.107,1.107,0,0,0,.413-.968q-.023-9.083-.01-18.164A2.115,2.115,0,0,1,58.74,99.96H73.367a2.092,2.092,0,0,1,2.319,2.322v25.07a2.092,2.092,0,0,1-2.3,2.3H61.246a6.592,6.592,0,0,1-1.6,4.563l-1.066-.849c-4.621-1.412-.832-1.979,1.253-2.908,1.007-.446-.219-2.071-1.008-3.034a6.175,6.175,0,0,0,.623-.479c1.113-1.1,2.243-2.194,3.313-3.337a4.5,4.5,0,0,0,.055-6.018c-.429-.481-.6-.49-1.048-.038q-2.626,2.647-5.248,5.308A3.877,3.877,0,0,0,56.217,123.279Zm1.518-3.637c.157-.143.251-.222.337-.31l2.673-2.7a1.939,1.939,0,0,1,3.2.142,5.9,5.9,0,0,1-.272,7.9c-.876.914-1.785,1.794-2.675,2.693-.163.163-.364.278-.216.605.136.3.329.295.575.293H73.309c.794,0,1-.2,1-.99v-24.89c0-.857-.183-1.047-1.028-1.047H58.7c-.756,0-.961.209-.961.98v16.822Z" transform="translate(-48.777 -88.457)" fill="#282e39"/><path d="M0,271.511v-7.552H2.053v-.527c0-3.61.008-7.22,0-10.831a7.919,7.919,0,0,1,2.472-5.911c.388-.382.749-.791,1.143-1.209l1.007,1.083c-.4.376-.816.768-1.227,1.167a6.454,6.454,0,0,0-2.008,4.833c.008,3.639,0,7.277,0,10.916v.444H17.248c0-.489-.012-.986.008-1.482a.487.487,0,0,1,.171-.38,4.258,4.258,0,0,0,2.219-2.49l1.285.46a4.816,4.816,0,0,1-1.761,2.515,1.182,1.182,0,0,0-.5,1.39h1.322v7.569Zm18.6-6.152H1.381v4.778H18.6Z" transform="translate(0 -217.232)" fill="#282e39"/><path d="M77.84,130.279V112.96c0-.771.2-.98.961-.98h14.58c.845,0,1.028.19,1.028,1.047v24.888c0,.789-.2.99-1,.99H81.464c-.249,0-.442.009-.575-.293-.147-.327.053-.442.216-.605.891-.9,1.8-1.779,2.675-2.693a5.9,5.9,0,0,0,.272-7.9,1.938,1.938,0,0,0-3.2-.142q-1.333,1.352-2.67,2.7C78.089,130.057,78,130.136,77.84,130.279ZM88.2,123.707h1.39v1.359h1.346V123.72H89.575l.017-1.381h1.337v-1.364H89.606v1.381l-1.417-.017v-1.357H86.847v1.345H88.2v1.392H86.844v1.345h1.347Zm-2.776-8.247h-4.1v4.09h4.091Zm5.523,0h-4.11v4.083h4.107Zm-5.523,5.523h-4.1v4.091h4.092Z" transform="translate(-68.914 -99.094)" fill="none"/><path d="M29.224,418.23v4.778H12V418.23Z" transform="translate(-10.619 -370.103)" fill="none"/><path d="M112.221,142.22v4.09H108.13v-4.09Zm-1.39,2.723V143.6h-1.318v1.341Z" transform="translate(-95.72 -125.854)" fill="#282e39"/><path d="M160.11,142.25v4.083H156V142.25Zm-2.73,2.7h1.33V143.63h-1.33Z" transform="translate(-138.096 -125.881)" fill="#282e39"/><path d="M112.222,190.22v4.091H108.13V190.22Zm-1.388,2.712V191.6H109.51v1.334Z" transform="translate(-95.72 -168.331)" fill="#282e39"/><path d="M157.464,191.555H156.11V190.21h1.343v1.357Z" transform="translate(-138.191 -168.322)" fill="#282e39"/><path d="M179.944,191.521V190.14h1.323V191.5H179.93Z" transform="translate(-159.277 -168.26)" fill="#282e39"/><path d="M167.78,201.938l1.411.015-.013-.012-.017,1.381.012-.013h-1.39l.012.013V201.93Z" transform="translate(-148.522 -178.693)" fill="#282e39"/><path d="M157.438,213.89v1.358H156.09V213.9h1.359Z" transform="translate(-138.174 -189.277)" fill="#282e39"/><path d="M179.78,213.911h1.358v1.346h-1.346V213.9Z" transform="translate(-159.145 -189.286)" fill="#282e39"/><path d="M121.468,155.571H120.15V154.23h1.318Z" transform="translate(-106.359 -136.482)" fill="none"/><path d="M168,155.565V154.24h1.33v1.324Z" transform="translate(-148.717 -136.491)" fill="none"/><path d="M121.444,203.534H120.12V202.2h1.324Z" transform="translate(-106.332 -178.932)" fill="none"/></svg>