<svg xmlns="http://www.w3.org/2000/svg" viewBox="0 0 509.09 477.96"><defs><style>.cls-1{fill:none;}</style></defs><title>Asset 3</title><g id="Layer_2" data-name="Layer 2"><g id="Layer_1-2" data-name="Layer 1"><path class="cls-1" d="M245.86,0c128,0,135.23,60.08,263.23,60.08,0,128-203.25,289.88-203.25,417.88-128,0,4-80.33-124-80.33C181.84,269.63,245.86,128,245.86,0ZM64.65,302.61A33.7,33.7,0,0,1,67.32,299q22.79-23.1,45.61-46.13c3.9-3.93,5.38-3.85,9.11.33a39.07,39.07,0,0,1-.48,52.3c-9.3,9.94-19.12,19.41-28.79,29a53.65,53.65,0,0,1-5.41,4.16c6.86,8.37,9.55,16.84,8.76,26.37s-5.2,17.55-10.89,25.23l9.26,7.38c9.4-11.7,14.53-24.49,13.87-39.65h4.24l101.24,0c12.74,0,20-7.24,20-20V120.14c0-13-7.14-20.18-20.15-20.18H86.58c-13.78,0-20.74,7-20.74,20.73q0,78.92.09,157.85c0,3.57-.84,6.22-3.59,8.41-2.43,1.93-4.74,4-7.22,6.14ZM0,471.69H173.67V405.91H162.18c-1.06-5.23-.26-8.83,4.36-12.08C174,388.58,178.86,381,181.84,372l-11.17-4a37,37,0,0,1-19.28,21.64c-.85.41-1.44,2.15-1.49,3.3-.17,4.31-.07,8.63-.07,12.88h-120V401.9c0-31.62.07-63.24,0-94.86,0-16.48,5.64-30.5,17.45-42,3.57-3.47,7.21-6.87,10.66-10.14l-8.73-9.41c-3.42,3.64-6.56,7.19-9.93,10.51-14.4,14.11-21.54,31.18-21.48,51.37.1,31.38,0,62.75,0,94.12v4.58H0Z"/><path d="M64.65,302.61l-9.53-9.52c2.48-2.12,4.79-4.21,7.22-6.14,2.75-2.19,3.6-4.84,3.59-8.41q-.2-78.93-.09-157.85c0-13.78,7-20.73,20.74-20.73H213.69c13,0,20.15,7.15,20.15,20.18V338c0,12.73-7.26,20-20,20L112.6,358h-4.24c.66,15.16-4.47,27.95-13.87,39.65l-9.26-7.38C45.07,378,78,373.07,96.12,365c8.75-3.88-1.9-18-8.76-26.37a53.65,53.65,0,0,0,5.41-4.16c9.67-9.6,19.49-19.07,28.79-29a39.07,39.07,0,0,0,.48-52.3c-3.73-4.18-5.21-4.26-9.11-.33q-22.82,23-45.61,46.13A33.7,33.7,0,0,0,64.65,302.61ZM77.84,271c1.36-1.24,2.18-1.93,2.93-2.69Q92.38,256.6,104,244.86c9.3-9.44,19.35-9,27.85,1.23a51.28,51.28,0,0,1-2.36,68.67c-7.61,7.94-15.51,15.59-23.25,23.4-1.42,1.42-3.16,2.42-1.88,5.26,1.18,2.63,2.86,2.56,5,2.55q51.92,0,103.83,0c6.9,0,8.66-1.74,8.66-8.6V121.07c0-7.45-1.59-9.1-8.93-9.1q-63.34,0-126.7,0c-6.57,0-8.35,1.82-8.35,8.52q0,73.09,0,146.19Z"/><path d="M0,471.69V406.06H17.84v-4.58c0-31.37.07-62.74,0-94.12-.06-20.19,7.08-37.26,21.48-51.37,3.37-3.32,6.51-6.87,9.93-10.51L58,254.89c-3.45,3.27-7.09,6.67-10.66,10.14-11.81,11.51-17.49,25.53-17.45,42,.07,31.62,0,63.24,0,94.86v3.86h120c0-4.25-.1-8.57.07-12.88,0-1.15.64-2.89,1.49-3.3a37,37,0,0,0,19.28-21.64l11.17,4c-3,9-7.82,16.61-15.3,21.86-4.62,3.25-5.42,6.85-4.36,12.08h11.49v65.78Zm161.68-53.46H12v41.52H161.68Z"/><path class="cls-1" d="M77.84,271v-4.31q0-73.09,0-146.19c0-6.7,1.78-8.52,8.35-8.52q63.36,0,126.7,0c7.34,0,8.93,1.65,8.93,9.1V337.36c0,6.86-1.76,8.6-8.66,8.6q-51.92,0-103.83,0c-2.16,0-3.84.08-5-2.55-1.28-2.84.46-3.84,1.88-5.26,7.74-7.81,15.64-15.46,23.25-23.4a51.28,51.28,0,0,0,2.36-68.67c-8.5-10.24-18.55-10.67-27.85-1.23q-11.58,11.75-23.2,23.45C80,269.07,79.2,269.76,77.84,271Zm90-57.11h12.08v11.81h11.7V214h-11.8l.15-12h11.62V190.15h-11.5c0,4.12,0,8,0,12L167.78,202V190.21H156.11V201.9h11.77q0,6,0,12.1H156.09v11.69H167.8Zm-24.12-71.67H108.13v35.54h35.55Zm48,0H156v35.48h35.69Zm-48,48H108.13v35.55h35.56Z"/><path class="cls-1" d="M161.68,418.23v41.52H12V418.23Z"/><path d="M143.68,142.22v35.54H108.13V142.22ZM131.6,165.88V154.23H120.15v11.65Z"/><path d="M191.72,142.25v35.48H156V142.25ZM168,165.75h11.56V154.24H168Z"/><path d="M143.69,190.22v35.55H108.13V190.22Zm-12.06,23.57V202.2H120.12v11.59Z"/><path d="M167.88,201.9H156.11V190.21h11.67V202Z"/><path d="M180.05,202.14v-12h11.5V202H179.93Z"/><path d="M167.78,202l12.26.13-.11-.1-.15,12,.1-.11H167.8l.1.11q0-6,0-12.1Z"/><path d="M167.8,213.89v11.8H156.09V214H167.9Z"/><path d="M179.78,214h11.8v11.7h-11.7V213.9Z"/><path class="cls-1" d="M131.6,165.88H120.15V154.23H131.6Z"/><path class="cls-1" d="M168,165.75V154.24h11.56v11.51Z"/><path class="cls-1" d="M131.63,213.79H120.12V202.2h11.51Z"/></g></g></svg>